 <svg  version="1.0" xmlns="http://www.w3.org/2000/svg"  width="55.000000pt" height="40.000000pt" viewBox="0 0 250.000000 270.000000"  preserveAspectRatio="xMidYMid meet">  <g transform="translate(0.000000,270.000000) scale(0.100000,-0.100000)" fill="#734933" stroke="none"> <path d="M1015 1856 c-61 -28 -115 -111 -115 -173 1 -91 121 -208 243 -237 26 -6 27 -5 27 34 0 29 -4 40 -15 40 -24 0 -117 49 -148 79 -67 61 -75 125 -23 177 79 79 172 19 205 -134 15 -73 14 -139 -5 -254 l-17 -98 24 -45 c20 -37 39 -58 39 -41 0 2 9 48 20 101 27 131 35 247 21 320 -15 81 -64 179 -107 211 -41 32 -106 40 -149 20z m230 -376 c-3 -69 -9 -112 -19 -165 -3 -11 -5 -24 -5 -28 -1 -5 -5 -5 -11 -2 -13 8 -13 61 1 86 6 11 12 53 13 92 7 159 7 156 17 122 4 -16 7 -63 4 -105z"/> <path d="M722 1730 c-18 -4 -51 -22 -73 -39 l-39 -32 -56 17 c-71 20 -123 13 -190 -28 -65 -39 -88 -77 -89 -148 -1 -38 -8 -66 -23 -90 -12 -19 -22 -42 -22 -51 0 -25 50 -64 128 -99 56 -26 72 -38 72 -54 0 -30 29 -108 47 -129 15 -16 14 -17 -28 -11 -54 7 -110 -13 -134 -50 -32 -49 1 -118 74 -156 40 -20 151 -15 207 10 63 27 88 51 112 109 19 42 25 48 68 59 129 35 185 206 96 295 -53 53 -182 55 -282 5 -55 -28 -69 -40 -89 -80 -15 -32 -29 -48 -42 -48 -10 0 -19 3 -20 8 0 4 -2 15 -4 24 -2 9 7 23 18 31 12 8 41 32 65 54 50 46 120 71 205 74 46 2 60 -1 73 -17 15 -18 15 -17 11 16 -3 19 -8 42 -12 51 -4 12 1 18 24 22 61 13 88 102 53 180 -29 66 -81 93 -150 77z m106 -65 c39 -46 23 -165 -23 -165 -12 0 -10 7 5 33 27 43 26 71 -1 35 -11 -16 -27 -28 -35 -28 -17 0 -17 1 1 36 8 16 15 43 15 59 -1 27 -3 25 -28 -25 -32 -64 -57 -80 -50 -31 3 18 1 34 -4 37 -4 3 -8 -3 -8 -13 0 -30 -36 -79 -74 -103 -54 -33 -37 -35 27 -4 73 36 85 31 111 -52 6 -20 3 -22 -77 -26 -97 -5 -152 -31 -211 -99 l-35 -41 -6 36 c-4 20 -4 47 -1 61 8 33 -2 32 -15 -1 l-10 -27 -37 43 c-50 58 -61 79 -62 118 0 29 23 92 34 92 3 0 18 -13 34 -30 35 -35 61 -37 120 -10 23 10 42 15 42 10 0 -14 -59 -52 -103 -66 l-42 -13 33 0 c49 -1 88 23 172 104 41 40 89 80 105 89 41 22 94 14 123 -19z m-285 -11 c27 -4 44 -11 40 -16 -9 -17 -112 -58 -141 -58 -62 1 -71 47 -12 67 42 14 53 15 113 7z m-130 -357 c2 -18 4 -33 2 -35 -5 -5 -129 75 -139 90 -7 12 -5 23 8 42 l17 27 53 -46 c39 -33 55 -54 59 -78z m390 4 c30 -30 32 -36 32 -106 l0 -74 22 21 c20 19 21 19 18 2 -2 -11 -4 -21 -5 -24 -1 -3 -2 -8 -1 -12 0 -5 -10 -8 -24 -8 -13 0 -39 -9 -57 -20 -43 -26 -61 -26 -53 0 5 16 2 20 -19 20 -29 0 -33 11 -11 30 12 10 15 10 15 -4 0 -24 17 -19 24 7 16 60 3 107 -29 107 -21 0 -22 -5 -28 -87 -8 -107 -19 -149 -38 -146 -28 4 -119 38 -119 44 0 4 13 9 30 12 28 6 69 51 56 64 -3 3 -17 -6 -31 -21 -20 -21 -31 -26 -48 -21 -12 4 -32 9 -44 12 -12 3 -24 12 -28 20 -8 23 3 29 18 9 11 -15 12 -12 9 23 -10 103 106 196 231 187 39 -3 55 -10 80 -35z m76 -38 c9 -18 9 -23 -1 -23 -7 0 -14 12 -14 26 -2 28 -1 28 15 -3z m-296 -269 c64 -26 67 -28 54 -48 -19 -29 -54 -44 -119 -52 -46 -5 -64 -3 -101 15 -56 27 -79 71 -52 101 31 35 102 29 218 -16z"/> <path d="M497 994 c-4 -4 -7 -18 -7 -31 0 -22 4 -24 37 -21 41 3 58 31 26 41 -10 2 -25 8 -34 11 -8 4 -18 3 -22 0z"/> <path d="M1770 1543 c-19 -2 -91 -13 -160 -24 -69 -11 -167 -23 -217 -26 -80 -5 -93 -9 -93 -24 0 -9 -3 -24 -6 -33 -10 -26 74 -20 276 19 259 50 334 46 397 -23 l33 -36 0 32 c0 46 -19 79 -54 96 -35 16 -123 26 -176 19z"/> <path d="M2014 1296 c-3 -8 2 -25 10 -38 9 -14 13 -28 9 -33 -5 -4 -1 -6 7 -3 19 6 24 41 10 67 -12 24 -28 27 -36 7z"/> <path d="M957 1293 c-4 -3 -7 -18 -7 -32 0 -14 -7 -51 -15 -81 -14 -53 -12 -78 4 -51 5 7 13 11 19 7 11 -7 26 33 38 97 8 46 -16 83 -39 60z"/> <path d="M1741 1236 c-14 -16 -9 -46 7 -46 5 0 15 7 22 16 11 12 11 18 -2 30 -13 13 -16 13 -27 0z"/> <path d="M2076 1218 c-20 -27 -20 -45 -2 -79 9 -18 10 -32 4 -44 -9 -14 -7 -16 10 -11 17 6 22 0 32 -28 8 -26 8 -41 0 -56 -12 -22 -49 -27 -67 -9 -8 8 -13 8 -17 0 -13 -20 5 -31 49 -31 52 0 88 26 134 98 33 52 37 62 21 62 -5 0 -19 -18 -30 -40 -11 -22 -24 -40 -28 -39 -4 0 -19 25 -34 55 -25 51 -26 56 -12 90 8 19 12 39 9 44 -11 18 -54 10 -69 -12z m47 -28 c-3 -11 -9 -20 -14 -20 -11 0 -11 3 -3 24 9 23 23 20 17 -4z"/> <path d="M1025 1182 c-37 -36 -63 -70 -58 -76 4 -3 -8 -6 -25 -6 -30 0 -31 -2 -37 -54 -8 -60 -3 -76 23 -76 13 0 17 9 17 39 1 30 11 54 42 97 39 56 74 85 60 50 -4 -9 -10 -22 -13 -30 -3 -9 2 -16 13 -19 15 -4 14 -5 -4 -6 -17 -1 -25 -10 -32 -38 -15 -52 -14 -68 4 -83 22 -18 60 1 84 41 l20 32 3 -39 c4 -50 35 -58 73 -20 31 31 35 32 35 7 0 -22 32 -36 55 -24 8 5 26 24 40 43 25 34 25 34 25 8 0 -37 10 -58 26 -58 8 0 14 10 14 25 0 14 7 42 15 62 19 46 20 43 -18 43 -27 0 -36 -6 -51 -35 -22 -40 -53 -71 -63 -62 -3 4 4 41 17 83 20 68 21 78 7 91 -20 20 -37 9 -37 -24 0 -50 -76 -170 -95 -151 -4 3 3 34 15 68 26 77 24 114 -7 118 -20 3 -23 -1 -23 -28 0 -36 -76 -160 -98 -160 -15 0 -12 16 19 97 12 28 19 62 17 75 -4 30 -37 35 -63 10z m155 -72 c0 -5 -9 -10 -21 -10 -11 0 -17 5 -14 10 3 6 13 10 21 10 8 0 14 -4 14 -10z"/> <path d="M1450 1160 c-44 -45 -47 -50 -26 -50 8 0 24 14 36 30 27 37 43 39 29 3 -10 -26 -9 -26 9 -10 25 23 32 21 32 -9 0 -23 -3 -26 -29 -22 -26 4 -30 1 -40 -33 -17 -55 -14 -87 9 -99 11 -6 20 -9 21 -8 0 2 1 21 3 44 2 40 50 120 93 155 15 13 16 11 9 -13 -5 -21 -3 -28 9 -28 8 0 15 -5 15 -11 0 -6 -9 -9 -20 -6 -16 4 -22 -4 -37 -49 -15 -50 -15 -56 -1 -71 24 -24 63 -9 90 34 l23 38 5 -34 c10 -65 54 -67 95 -3 25 40 33 40 37 0 2 -23 11 -37 30 -47 24 -14 30 -14 62 2 38 17 111 117 103 140 -2 7 -16 -8 -32 -33 -54 -88 -96 -114 -110 -70 -8 26 0 38 39 54 45 19 66 43 66 76 0 37 -36 64 -74 54 -29 -7 -40 -19 -106 -123 -66 -104 -90 -90 -51 29 13 39 16 59 8 68 -15 18 -27 11 -43 -26 -13 -31 -13 -33 6 -27 11 4 20 2 20 -4 0 -6 -10 -11 -22 -11 -16 0 -33 -15 -56 -50 -51 -79 -69 -63 -32 30 25 62 26 106 4 114 -20 8 -62 -18 -72 -42 -5 -13 -8 -10 -12 13 -8 47 -41 45 -90 -5z m498 -27 c-2 -18 -14 -33 -36 -46 -18 -11 -35 -17 -38 -15 -6 7 55 88 67 88 6 0 9 -12 7 -27z m-66 -8 c-3 -20 -10 -25 -33 -25 -16 0 -29 2 -29 4 0 3 60 45 66 46 1 0 -1 -11 -4 -25z"/> <path d="M1380 1178 c0 -7 -3 -23 -6 -35 -6 -21 -4 -21 20 -10 18 8 26 19 24 32 -3 22 -38 34 -38 13z"/> <path d="M1746 955 c-23 -91 -183 -177 -365 -195 -163 -17 -273 10 -494 123 -112 57 -140 68 -148 56 -6 -9 -3 -18 7 -26 43 -32 347 -176 404 -191 89 -23 320 -23 407 0 138 38 243 114 243 177 0 60 -42 103 -54 56z m-46 -135 c-24 -15 -37 -11 -16 5 11 8 22 12 25 9 3 -3 -1 -9 -9 -14z"/> <path d="M1339 931 c-100 -10 -163 -22 -174 -31 -10 -8 -34 -13 -61 -11 -33 2 -46 -2 -50 -14 -10 -25 1 -29 51 -16 34 8 49 8 64 0 27 -18 371 15 387 36 8 10 28 15 63 15 40 0 51 3 51 16 0 14 -9 15 -59 9 -38 -4 -61 -3 -65 4 -8 13 -7 13 -207 -8z"/> <path d="M857 706 c4 -6 8 -15 8 -21 1 -12 47 -8 55 4 7 10 41 10 34 -1 -3 -4 1 -6 8 -3 24 9 41 -10 29 -33 -13 -25 -14 -42 -2 -42 5 0 11 13 14 30 4 16 16 39 27 50 11 11 16 20 11 20 -5 0 -17 -7 -25 -16 -9 -8 -16 -11 -16 -5 0 6 -3 10 -7 9 -5 0 -16 2 -26 7 -9 4 -29 5 -42 3 -14 -3 -25 -2 -25 1 0 3 -11 7 -25 7 -16 1 -22 -2 -18 -10z"/> <path d="M1536 701 c-9 -13 -4 -101 5 -107 5 -3 9 6 9 20 0 14 5 26 10 26 6 0 10 -9 10 -20 0 -11 5 -20 10 -20 6 0 8 11 4 28 -9 36 -11 37 -30 21 -16 -13 -17 -11 -11 24 6 36 3 46 -7 28z"/> <path d="M1680 698 c0 -18 14 -38 26 -38 20 0 17 18 -3 23 -14 4 -12 5 5 6 12 0 22 5 22 10 0 5 -11 8 -25 7 -14 0 -25 -4 -25 -8z"/> <path d="M1412 678 c-14 -14 -16 -94 -3 -102 5 -3 6 15 3 40 -4 36 -1 48 14 59 11 8 14 15 9 15 -6 0 -16 -5 -23 -12z"/> <path d="M1640 676 c0 -8 5 -18 10 -21 8 -5 7 -11 -1 -21 -7 -8 -7 -14 -1 -14 5 0 15 6 21 14 9 10 8 16 -4 26 -8 7 -12 16 -9 21 3 5 0 9 -5 9 -6 0 -11 -6 -11 -14z"/> <path d="M930 670 c0 -6 -10 -15 -22 -19 -21 -8 -21 -10 -5 -16 12 -5 22 -2 31 10 7 10 18 15 24 11 7 -4 12 -3 12 2 0 6 -7 13 -16 16 -21 8 -24 8 -24 -4z"/> <path d="M1595 653 c7 -32 22 -50 31 -40 4 4 1 13 -6 22 -10 12 -10 18 0 30 10 13 9 15 -10 15 -19 0 -21 -4 -15 -27z"/> <path d="M1027 642 c-19 -21 -22 -42 -7 -42 6 0 10 9 10 20 0 11 7 20 15 20 18 0 19 -11 3 -30 -7 -8 -2 -6 11 5 l24 20 -5 -22 c-4 -13 -2 -26 3 -29 5 -3 9 1 9 8 0 7 3 24 7 37 5 20 3 23 -10 18 -9 -3 -19 -2 -22 3 -9 15 -20 12 -38 -8z"/> <path d="M1264 650 c-22 -8 -39 -38 -29 -48 3 -4 8 3 11 15 8 31 68 28 72 -4 2 -14 -4 -26 -17 -32 -17 -10 -20 -7 -24 17 -4 26 -4 26 -12 5 -4 -13 -11 -23 -16 -23 -5 0 -9 -4 -9 -10 0 -18 59 -11 80 10 28 28 26 58 -6 70 -14 6 -26 10 -27 9 -1 0 -11 -4 -23 -9z"/> <path d="M1438 643 c-4 -16 7 -85 11 -73 2 3 3 24 4 48 2 42 -7 57 -15 25z"/> <path d="M1483 638 c-6 -7 -14 -34 -17 -60 -6 -43 -5 -48 11 -48 20 0 43 18 43 34 0 5 -6 1 -14 -10 -22 -29 -41 -5 -20 25 13 18 18 20 26 10 6 -10 8 -3 6 20 -3 37 -19 50 -35 29z m17 -22 c0 -8 -4 -18 -10 -21 -5 -3 -10 3 -10 14 0 12 5 21 10 21 6 0 10 -6 10 -14z"/> <path d="M1133 625 c10 -10 16 -26 14 -36 -3 -11 -1 -19 4 -19 5 0 9 6 9 14 0 8 10 22 22 30 l22 16 -26 0 c-14 0 -35 3 -45 7 -17 7 -17 6 0 -12z"/> <path d="M1348 605 c-16 -36 4 -57 30 -31 16 18 16 18 -8 6 -22 -12 -23 -11 -13 2 7 8 9 19 5 23 -4 5 -1 5 6 1 7 -4 12 -1 12 8 0 25 -19 19 -32 -9z"/> <path d="M1111 607 c-6 -8 -8 -17 -4 -20 11 -12 19 -7 20 13 2 24 -1 25 -16 7z"/> </g> </svg> 